<!-- ARQUIVO NOVO: public/vite.svg -->
<svg xmlns="http://www.w3.org/2000/svg" xmlns:xlink="http://www.w3.org/1999/xlink" aria-hidden="true" role="img" class="iconify iconify--logos" width="31.88" height="32" preserveAspectRatio="xMidYMid meet" viewBox="0 0 256 257">
    <defs>
        <linearGradient id="IconifyId1813088fe1fbc01fb466" x1="-.828%" x2="100.828%" y1="103.566%" y2="-3.566%">
            <stop offset="0%" stop-color="#41D1FF"></stop>
            <stop offset="100%" stop-color="#BD34FE"></stop>
        </linearGradient>
        <linearGradient id="IconifyId1813088fe1fbc01fb467" x1="7.416%" x2="93.584%" y1="3.838%" y2="97.162%">
            <stop offset="0%" stop-color="#FFEA83"></stop>
            <stop offset="50.001%" stop-color="#FFDD35"></stop>
            <stop offset="100%" stop-color="#FFD035"></stop>
        </linearGradient>
    </defs>
    <path fill="url(#IconifyId1813088fe1fbc01fb466)" d="M255.153 86.313c-3.24-14.987-10.833-28.422-21.867-39.456c-11.034-11.034-24.469-18.627-39.456-21.867c-14.987-3.24-30.425-3.465-45.46-1.026c-15.035 2.439-29.235 8.22-41.65 16.836l-80.85 55.983c-13.233 9.17-23.928 21.01-31.15 34.572c-7.223 13.562-10.74 28.422-10.26 43.254c.48 14.832 4.932 29.347 12.825 42.39c7.893 13.042 18.97 24.25 32.203 32.867l80.85 55.983c13.233 9.17 27.972 15.783 43.578 19.023c15.606 3.24 31.79 3.24 47.396 0c15.606-3.24 30.345-9.853 43.578-19.023l56.142-38.908c12.31-8.52 22.5-19.61 29.625-32.48c7.125-12.87 11.07-27.225 11.45-41.831c.38-14.607-2.44-29.025-8.133-42.213Z"></path>
    <path fill="url(#IconifyId1813088fe1fbc01fb467)" d="M180.433 30.313c-3.24-14.987-10.833-28.422-21.867-39.456c-11.034-11.034-24.469-18.627-39.456-21.867c-14.987-3.24-30.425-3.465-45.46-1.026c-15.035 2.439-29.235 8.22-41.65 16.836l-80.85 55.983c-13.233 9.17-23.928 21.01-31.15 34.572c-7.223 13.562-10.74 28.422-10.26 43.254c.48 14.832 4.932 29.347 12.825 42.39c7.893 13.042 18.97 24.25 32.203 32.867l80.85 55.983c13.233 9.17 27.972 15.783 43.578 19.023c15.606 3.24 31.79 3.24 47.396 0c15.606-3.24 30.345-9.853 43.578-19.023l56.142-38.908c12.31-8.52 22.5-19.61 29.625-32.48c7.125-12.87 11.07-27.225 11.45-41.831c.38-14.607-2.44-29.025-8.133-42.213Z" transform="translate(-52.78 25.28)"></path>
</svg>